<?xml version="1.0" encoding="utf-8"?>
<!-- Generator: Adobe Illustrator 24.2.3, SVG Export Plug-In . SVG Version: 6.00 Build 0)  -->
<svg version="1.1" xmlns="http://www.w3.org/2000/svg" xmlns:xlink="http://www.w3.org/1999/xlink" x="0px" y="0px"
	 viewBox="0 0 700 700" style="enable-background:new 0 0 700 700;" xml:space="preserve">
<style type="text/css">
	.st0{fill:#66A8DE;}
	.st1{fill:#C6C6C6;}
	.st2{fill:#E2E2E2;}
	.st3{fill:#959595;}
	.st4{fill:#1D3356;}
	.st5{fill:#FFFFFF;}
	.st6{fill:#23A0BF;}
	.st7{fill:#396599;}
	.st8{fill:#8BDEF8;}
	.st9{fill:#FF213D;}
</style>
<g id="BACKGROUND">
</g>
<g id="OBJECTS">
	<g id="Favoritos">
	</g>
	<g id="Favoritos_1_">
	</g>
	<g id="Favoritos_2_">
	</g>
	<polygon class="st6" points="637.35,607.07 58.67,607.07 58.67,303.99 238.79,161.03 466.15,161.03 637.35,303.99 	"/>
	<g>
		<path class="st7" d="M636.48,614.15h-573c-3.03,0-5.49-2.45-5.49-5.49V306.42c0-1.63,0.73-3.18,1.98-4.22l175.31-145.39
			c0.99-0.82,2.23-1.26,3.5-1.26h227.36c1.31,0,2.57,0.47,3.56,1.31l170.33,145.39c1.22,1.04,1.93,2.57,1.93,4.17v302.24
			C641.97,611.69,639.51,614.15,636.48,614.15z M68.96,603.18h562.03V308.95L464.13,166.52H240.77L68.96,309V603.18z"/>
		<g>
			<rect x="149.15" y="91.31" class="st5" width="390.77" height="425.37"/>
			<path class="st7" d="M539.92,522.16H149.15c-3.03,0-5.49-2.45-5.49-5.49V91.31c0-3.03,2.45-5.49,5.49-5.49h390.77
				c3.03,0,5.49,2.45,5.49,5.49v425.37C545.41,519.71,542.95,522.16,539.92,522.16z M154.64,511.19h379.8V96.8h-379.8V511.19z"/>
		</g>
		<g>
			<g>
				<polygon class="st8" points="636.48,608.66 63.48,608.66 63.48,309.9 263.63,432.11 418.56,432.11 636.48,309.9 				"/>
				<line class="st8" x1="263.63" y1="432.68" x2="64.71" y2="608.69"/>
				<line class="st8" x1="636.52" y1="607.81" x2="421.96" y2="432.68"/>
			</g>
			<g>
				<path class="st7" d="M636.48,614.15h-573c-3.03,0-5.49-2.45-5.49-5.49V309.9c0-1.98,1.07-3.81,2.8-4.78
					c1.74-0.97,3.86-0.93,5.55,0.1l198.83,121.4h151.95l216.68-121.5c1.67-0.95,3.76-0.94,5.45,0.05c1.68,0.99,2.71,2.79,2.71,4.74
					v298.76C641.97,611.69,639.51,614.15,636.48,614.15z M68.96,603.18h562.03V319.27L421.24,436.89c-0.81,0.46-1.74,0.7-2.68,0.7
					H263.63c-1.01,0-1.99-0.28-2.86-0.8L68.96,319.68V603.18z"/>
				<path class="st7" d="M64.71,614.18c-1.51,0-3.02-0.63-4.1-1.85c-2.01-2.27-1.8-5.74,0.47-7.75L260,428.56
					c2.25-2,5.72-1.8,7.74,0.47c2.01,2.27,1.8,5.74-0.47,7.75L68.34,612.8C67.3,613.72,66.01,614.18,64.71,614.18z"/>
				<path class="st7" d="M636.52,613.3c-1.22,0-2.45-0.41-3.47-1.24L418.49,436.92c-2.35-1.91-2.69-5.37-0.78-7.72
					c1.93-2.34,5.39-2.68,7.73-0.78L640,603.57c2.35,1.91,2.69,5.37,0.78,7.72C639.68,612.61,638.11,613.3,636.52,613.3z"/>
			</g>
		</g>
	</g>
	<g>
		<g>
			<path class="st9" d="M475.1,259.19c0,72.26-58.58,130.84-130.84,130.84c-72.26,0-130.87-58.58-130.87-130.84
				c0-72.26,58.6-130.85,130.87-130.85C416.52,128.34,475.1,186.92,475.1,259.19z"/>
		</g>
		<g>
			<polygon class="st5" points="430.88,234.39 374.96,234.39 374.96,178.45 313.51,178.45 313.51,234.39 257.59,234.39 
				257.59,295.82 313.51,295.82 313.51,351.77 374.96,351.77 374.96,295.82 430.88,295.82 			"/>
		</g>
	</g>
</g>
<g id="DESIGNED_BY_FREEPIK">
	<g id="Favoritos_3_">
	</g>
	<g id="Favoritos_4_">
	</g>
	<g id="Favoritos_5_">
	</g>
</g>
</svg>
