<?xml version="1.0" encoding="utf-8"?>
<!-- Generator: Adobe Illustrator 21.1.0, SVG Export Plug-In . SVG Version: 6.00 Build 0)  -->
<svg version="1.1" id="Capa_1" xmlns="http://www.w3.org/2000/svg" xmlns:xlink="http://www.w3.org/1999/xlink" x="0px" y="0px"
	 viewBox="0 0 612 612" style="enable-background:new 0 0 612 612;" xml:space="preserve">
<style type="text/css">
	.st0{fill:#F90044;}
	.st1{fill:#B4C6CA;}
	.st2{fill:#DFE8EA;}
	.st3{fill:#0599BE;}
	.st4{fill:#FFFFFF;}
</style>
<path class="st0" d="M306.5,162.1c0,9.3-7.6,16.9-16.9,16.9l0,0c-9.3,0-16.9-7.6-16.9-16.9V124c0-9.3,7.6-16.9,16.9-16.9l0,0
	c9.3,0,16.9,7.6,16.9,16.9V162.1z"/>
<rect x="264.8" y="130.9" class="st1" width="49.5" height="14.8"/>
<path class="st2" d="M201.3,168.2l-58.4,89.7l-48.9,13.3c-21.1,5.8-38.2,28.2-38.2,50.1v96.4h510V218.2c0-43.8-31.5-79.3-75.3-79.3
	H267.7C245.8,138.9,216.1,152,201.3,168.2z"/>
<g>
	<path class="st1" d="M66.3,417.6c0-41.8,33.9-75.8,75.8-75.8c41.8,0,75.8,33.9,75.8,75.8C217.9,459.5,66.3,459.5,66.3,417.6z"/>
	<path class="st3" d="M203.2,424.5c0,33.8-27.4,61.1-61.1,61.1c-33.8,0-61.1-27.4-61.1-61.1c0-33.8,27.4-61.1,61.1-61.1
		C175.9,363.3,203.2,390.7,203.2,424.5z"/>
	<path class="st4" d="M171.8,424.5c0,16.4-13.3,29.7-29.7,29.7c-16.4,0-29.7-13.3-29.7-29.7c0-16.4,13.3-29.7,29.7-29.7
		C158.5,394.7,171.8,408.1,171.8,424.5z"/>
</g>
<g>
	<path class="st1" d="M388.6,417.6c0-41.8,33.9-75.8,75.8-75.8c41.8,0,75.8,33.9,75.8,75.8C540.2,459.5,388.6,459.5,388.6,417.6z"/>
	<path class="st3" d="M525.5,424.5c0,33.8-27.4,61.1-61.1,61.1c-33.8,0-61.1-27.4-61.1-61.1c0-33.8,27.4-61.1,61.1-61.1
		C498.2,363.3,525.5,390.7,525.5,424.5z"/>
	<path class="st4" d="M494.1,424.5c0,16.4-13.3,29.7-29.7,29.7c-16.4,0-29.7-13.3-29.7-29.7c0-16.4,13.3-29.7,29.7-29.7
		C480.8,394.7,494.1,408.1,494.1,424.5z"/>
</g>
<polygon class="st3" points="163.9,263.5 186.9,293.1 299.6,293.1 299.6,169.9 227,169.9 "/>
<rect x="317.4" y="169.9" class="st3" width="196.3" height="123.2"/>
<rect x="27" y="363.3" class="st1" width="36.4" height="54.3"/>
<rect x="542.3" y="363.3" class="st1" width="45" height="54.3"/>
<g>
	<rect x="377.4" y="182.4" class="st4" width="36.3" height="95.9"/>
	<rect x="347.6" y="212.2" class="st4" width="95.9" height="36.3"/>
</g>
<path class="st0" d="M565.8,326.6v-22H58.9c-2,5.4-3.2,11-3.2,16.6v5.4H565.8z"/>
</svg>
