<svg xmlns="http://www.w3.org/2000/svg" viewBox="0 0 700 700"><defs><style>.cls-1{fill:#66a8de;}.cls-2,.cls-6{fill:#1d3356;}.cls-3{fill:#fff;}.cls-4{fill:#959595;}.cls-5{fill:#396599;}.cls-6{font-size:70.79px;font-family:Arial-BoldMT, Arial;font-weight:700;}</style></defs><g id="OBJECTS"><path class="cls-1" d="M125.23,274.07l-22.9,105.11L36.13,508.57v42.65H257.24V251.41H153.36A28.78,28.78,0,0,0,125.23,274.07Z"/><path class="cls-1" d="M663.87,551.22V246.45c0-24.59-22.58-44.52-50.44-44.52H309.21c-28.7,0-52,20.54-52,45.87V551.22H663.87Z"/><polygon class="cls-2" points="257.24 508.57 257.24 551.22 625.74 551.22 663.87 551.22 663.87 508.57 257.24 508.57"/><rect class="cls-2" x="36.13" y="508.57" width="221.1" height="42.65"/><path class="cls-3" d="M140.16,487.66A63.56,63.56,0,0,0,76.6,551.22H203.73A63.57,63.57,0,0,0,140.16,487.66Z"/><path class="cls-3" d="M517,487.66a63.57,63.57,0,0,0-63.57,63.56H580.59A63.57,63.57,0,0,0,517,487.66Z"/><path class="cls-2" d="M190.86,551.22a50.7,50.7,0,1,1-50.7-50.7A50.7,50.7,0,0,1,190.86,551.22Z"/><path class="cls-2" d="M567.72,551.22a50.7,50.7,0,1,1-50.7-50.7A50.7,50.7,0,0,1,567.72,551.22Z"/><path class="cls-3" d="M215.25,280.37H175.17a22.93,22.93,0,0,0-22.4,18.05L140.7,353.86a22.92,22.92,0,0,0,22.39,27.8h52.16a22.93,22.93,0,0,0,22.93-22.92V303.3A22.93,22.93,0,0,0,215.25,280.37Z"/><path class="cls-3" d="M165.52,551.21a25.35,25.35,0,1,1-25.36-25.34A25.36,25.36,0,0,1,165.52,551.21Z"/><path class="cls-4" d="M152.84,551.21a12.68,12.68,0,1,1-12.68-12.66A12.68,12.68,0,0,1,152.84,551.21Z"/><path class="cls-3" d="M542.37,551.21A25.35,25.35,0,1,1,517,525.87,25.35,25.35,0,0,1,542.37,551.21Z"/><path class="cls-4" d="M529.69,551.21A12.68,12.68,0,1,1,517,538.55,12.67,12.67,0,0,1,529.69,551.21Z"/><rect class="cls-2" x="307.37" y="251.41" width="308.63" height="62.12" rx="31.06"/><rect class="cls-3" x="353.42" y="101.17" width="220.21" height="209.7"/><path class="cls-5" d="M573.62,314H353.42a3.09,3.09,0,0,1-3.1-3.09V101.17a3.09,3.09,0,0,1,3.1-3.09h220.2a3.09,3.09,0,0,1,3.1,3.09v209.7A3.09,3.09,0,0,1,573.62,314Zm-217.11-6.18h214V104.26h-214Z"/><text class="cls-6" transform="translate(117.82 459.45)">SUGERENCIAS</text><rect class="cls-2" x="397.35" y="137.91" width="132.35" height="20.67"/><rect class="cls-2" x="397.35" y="191.6" width="132.35" height="20.67"/><rect class="cls-2" x="397.35" y="245.29" width="132.35" height="20.67"/></g></svg>